<svg enable-background="new 0 0 745.3 99.4" viewBox="0 0 745.3 99.4" xmlns="http://www.w3.org/2000/svg"><path d="m206 5.7h17.6v90h-17.6zm81.1 30.9c5.1 5.8 7.6 13.6 7.6 23.4v7.1h-45.6c.2 5.3 1.5 9.4 4 12.4s6.3 4.5 11.3 4.5c7 0 11.1-2.9 12.4-8.8h17.2c-1.2 7.4-4.1 13-8.9 16.8-4.7 3.8-11.7 5.7-20.7 5.7-10.9 0-19.1-3-24.6-9.1s-8.3-14.6-8.3-25.7c0-5.5.8-10.5 2.4-14.8s3.8-8 6.7-11 6.4-5.3 10.4-6.9 8.5-2.3 13.4-2.3c10 0 17.6 2.9 22.7 8.7zm-9.4 18.9c0-4.5-1.1-8.1-3.3-10.6s-5.7-3.8-10.4-3.8c-2.4 0-4.4.4-6.2 1.1-1.8.8-3.3 1.8-4.5 3.1s-2.2 2.8-2.8 4.5c-.7 1.7-1.1 3.6-1.1 5.6h28.3zm81.4-12.3c1 3.2 1.4 6.9 1.4 10.9v41.6h-16.6v-8.3c-2.6 2.9-5.5 5.3-8.8 7.2-3.2 1.8-7.4 2.8-12.5 2.8-2.9 0-5.7-.4-8.4-1.1-2.6-.8-5-1.9-6.9-3.5-2-1.6-3.6-3.6-4.7-6.1-1.2-2.5-1.8-5.4-1.8-8.9 0-4.5 1-8.2 3-11.1s4.7-5.1 7.9-6.7c3.3-1.6 7-2.7 11-3.4 4.1-.7 8.2-1.1 12.4-1.3l8.4-.4v-3.3c0-4-1.1-6.8-3.3-8.3s-4.9-2.3-7.9-2.3c-7 0-11 2.6-12 7.9l-16.1-1.5c1.2-6.9 4.2-11.9 9.1-14.9 4.9-3.1 11.4-4.6 19.7-4.6 5 0 9.3.6 12.9 1.8 3.5 1.2 6.4 3 8.5 5.2 2.1 2.3 3.7 5 4.7 8.3zm-15.6 23.1-7.8.4c-3.7.2-6.7.5-8.9 1.1-2.3.6-4 1.3-5.2 2.2s-2 1.9-2.5 3.1c-.4 1.2-.6 2.5-.6 3.9 0 2.2.8 3.9 2.3 5.2s3.6 1.9 6.3 1.9c4.5 0 8.2-1.1 11.1-3.2 1.6-1.2 2.9-2.7 3.9-4.5s1.5-4.1 1.5-6.7v-3.4zm61.5-37.6c-3.4 0-6.7.9-9.8 2.6s-5.8 4.3-7.9 7.8v-9.2h-17.1v65.8h17.6v-38.1c0-1.8.4-3.5 1.1-5.2s1.8-3.2 3.3-4.5c1.4-1.3 3-2.1 4.8-2.6s3.6-.7 5.5-.7c2.9 0 5.4.3 7.4.8l2.1-16c-.8-.2-1.8-.3-2.9-.4-1-.2-2.4-.3-4.1-.3zm58 13.7-12.4-2.4c-4.5-.9-7.8-2.2-9.6-3.9-1.9-1.7-2.8-4.2-2.8-7.6 0-1.3.3-2.5.8-3.7s1.4-2.2 2.6-3.1c1.3-.9 2.9-1.6 5-2.1s4.7-.8 7.9-.8c5.4 0 9.4 1.1 12 3.3s4.4 5.8 5.4 10.7l17.8-2.3c-.4-3.5-1.3-6.9-2.6-10.2s-3.3-6.2-6-8.6c-2.7-2.5-6.2-4.5-10.6-6s-9.8-2.3-16.4-2.3c-5.1 0-9.8.6-14.1 1.7s-8 2.8-11 5c-3.1 2.2-5.5 4.9-7.2 8.2s-2.6 7.1-2.6 11.3c0 4.3.6 8 1.9 11.1s3.1 5.7 5.5 7.9c2.4 2.1 5.4 3.9 8.9 5.2s7.6 2.4 12.2 3.3l11.7 2.1c4.7.9 7.9 2.4 9.7 4.5s2.6 4.3 2.6 6.6c0 1.7-.3 3.2-.8 4.7-.5 1.4-1.4 2.7-2.7 3.7-1.3 1.1-2.9 1.9-4.9 2.5s-4.5.9-7.4.9c-6.1 0-10.8-1.3-13.9-3.8-3.2-2.5-4.9-6.6-5.4-12.1h-19c.5 10.6 4 18.5 10.5 23.8s15.9 7.9 28.2 7.9c5.9 0 11-.7 15.4-2.1s8-3.3 10.9-5.8 5.1-5.4 6.6-8.7 2.2-7 2.2-10.9c0-8.2-2.3-14.4-6.8-18.7-4.7-4.3-11.9-7.4-21.6-9.3zm74.8 38.1c-1.9 2-4.7 3-8.2 3-2.7 0-4.9-.6-6.7-1.7s-3.2-2.7-4.2-4.6-1.7-4.2-2.1-6.7-.6-5.2-.6-7.9.2-5.3.6-7.8 1.2-4.7 2.2-6.6c1.1-1.9 2.5-3.5 4.2-4.6 1.8-1.1 4-1.7 6.7-1.7 3.7 0 6.3 1 7.8 3.1s2.5 4.8 2.9 8.1l17.8-2.4c-.4-3.4-1.3-6.4-2.5-9.3-1.3-2.8-3-5.2-5.3-7.2s-5.1-3.6-8.4-4.7-7.2-1.7-11.7-1.7c-5.2 0-9.8.8-13.9 2.5-4 1.7-7.4 4.1-10.2 7.1-2.8 3.1-4.9 6.8-6.4 11.1s-2.2 9.1-2.2 14.3.6 10 1.9 14.2c1.3 4.3 3.2 7.9 5.7 11 2.6 3 5.9 5.4 9.9 7.1s8.8 2.5 14.4 2.5c9.5 0 16.6-2.3 21.4-7 4.7-4.7 7.5-10.9 8.1-18.8h-17.9c-.3 3.8-1.4 6.7-3.3 8.7zm93.4-17.9c0 5.5-.8 10.4-2.3 14.7-1.6 4.3-3.8 8-6.7 11s-6.4 5.3-10.5 6.9-8.7 2.4-13.7 2.4c-10.6 0-18.8-3-24.6-9.1s-8.7-14.7-8.7-26c0-5.4.8-10.2 2.3-14.6 1.6-4.3 3.8-8 6.7-11s6.4-5.3 10.5-6.9 8.7-2.4 13.7-2.4c5.1 0 9.7.8 13.9 2.4 4.1 1.6 7.6 3.9 10.5 6.9s5.1 6.6 6.6 11c1.6 4.5 2.3 9.4 2.3 14.7zm-18.2 0c0-6.7-1.2-11.8-3.7-15.4-2.5-3.5-6.3-5.2-11.3-5.2s-8.8 1.8-11.3 5.3-3.7 8.7-3.7 15.4c0 6.8 1.2 12 3.7 15.6 2.4 3.6 6.2 5.4 11.3 5.4 5 0 8.8-1.8 11.3-5.4 2.4-3.8 3.7-8.9 3.7-15.7zm60.9-33.9c-3.4 0-6.7.9-9.8 2.6s-5.8 4.3-7.9 7.8v-9.2h-17.2v65.8h17.6v-38.1c0-1.8.4-3.5 1.1-5.2s1.8-3.2 3.3-4.5c1.4-1.3 3-2.1 4.8-2.6s3.6-.7 5.5-.7c2.9 0 5.4.3 7.4.8l2.1-16c-.8-.2-1.8-.3-2.9-.4-1-.2-2.3-.3-4-.3zm71.4 38.4h-45.6c.2 5.3 1.5 9.4 4 12.4s6.3 4.5 11.3 4.5c7 0 11.1-2.9 12.4-8.8h17.1c-1.2 7.4-4.1 13-8.9 16.8-4.7 3.8-11.7 5.7-20.7 5.7-10.9 0-19.1-3-24.6-9.1s-8.3-14.6-8.3-25.7c0-5.5.8-10.5 2.4-14.8s3.8-8 6.7-11 6.4-5.3 10.4-6.9 8.5-2.3 13.4-2.3c10.1 0 17.7 2.9 22.8 8.7s7.6 13.6 7.6 23.4zm-17.1-11.6c0-4.5-1.1-8.1-3.3-10.6s-5.7-3.8-10.4-3.8c-2.4 0-4.4.4-6.2 1.1-1.8.8-3.3 1.8-4.5 3.1s-2.2 2.8-2.8 4.5c-.7 1.7-1.1 3.6-1.1 5.6h28.3zm-533.3 24.4c1.1-2.4 2-5.1 2.8-7.9l-17.7-6.6v.1c-.7 5.1-2.4 9-5 11.8-2.7 3-7 4.5-12.8 4.5-7.2 0-12.7-2.7-16.5-8.1-3.7-5.4-5.6-13.1-5.6-23s1.9-17.6 5.6-23 9.2-8.1 16.5-8.1c5.8 0 10.1 1.5 12.8 4.5 2.6 2.8 4.2 6.8 5 11.8v.1l17.7-6.6c-.8-2.8-1.7-5.4-2.8-7.9-1.8-3.8-4.1-7-7-9.7-.7-.7-1.5-1.3-2.3-1.9-.1 0-.1-.1-.2-.1-.5-.3-.9-.6-1.4-.9-1.9-1.1-3.9-2.1-6.1-2.9-4.6-1.7-9.8-2.5-15.9-2.5-6.4 0-12.2 1.1-17.2 3.3-5.1 2.2-9.5 5.3-13.1 9.5-3.6 4.1-6.4 9.1-8.3 14.9-1.4 4.3-2.3 9.1-2.7 14.3v.1c-.1 1.7-.2 3.5-.2 5.3s.1 3.6.2 5.3v.1c.4 5.2 1.3 9.9 2.7 14.3 1.9 5.8 4.7 10.8 8.3 14.9s8 7.3 13.1 9.5 10.8 3.3 17.2 3.3c6 0 11.3-.8 15.9-2.5 2.2-.8 4.2-1.8 6.1-2.9.5-.3 1-.6 1.4-.9.1 0 .1-.1.2-.1.8-.6 1.6-1.2 2.3-1.9 2.9-3.1 5.3-6.3 7-10.1zm-169.4 6.8c0-7-5.7-12.7-12.7-12.7-7-.1-12.8 5.6-12.8 12.7s5.7 12.7 12.7 12.7c7.1 0 12.8-5.7 12.8-12.7zm0 0c0-7-5.7-12.7-12.7-12.7-7-.1-12.8 5.6-12.8 12.7s5.7 12.7 12.7 12.7c7.1 0 12.8-5.7 12.8-12.7zm68.3-81h-90v51.7c2.8-.9 5.9-1.3 9-1.3s6.2.5 9 1.4v-33.8h54v54h-33.7c.9 2.8 1.3 5.9 1.3 9s-.5 6.2-1.4 9h51.7v-90z"/></svg>