<svg height="25" viewBox="0 0 542.4 96.48" width="140" xmlns="http://www.w3.org/2000/svg"><g fill="#252e5d"><path d="m157.11 94.55-33-36.91h-13.4v36.91h-14.83v-92.61h43.54q14.24 0 23 7.67t8.78 20.25q0 11.88-8 19.42t-21.2 8.22l33.45 37.05zm-17.69-50.32q7.61 0 12.3-3.94a12.93 12.93 0 0 0 4.7-10.43 13.16 13.16 0 0 0 -4.7-10.51q-4.69-4-12.3-4h-28.75v28.88z"/><path d="m262.45 14.1a46.78 46.78 0 0 1 14 34.28q0 20.17-14 34.14t-34.35 14q-20.32 0-34.28-14t-14-34.14q0-20.33 14-34.35t34.28-14.03q20.31 0 34.35 14.1zm-10.58 58.61q9.67-9.82 9.68-24.33 0-14.66-9.68-24.54a33.46 33.46 0 0 0 -47.48 0q-9.6 9.89-9.6 24.54 0 14.5 9.6 24.33a33.63 33.63 0 0 0 47.48 0z"/><path d="m329.16 94.55h-14.24l-40.22-92.61h16.3l31 72.56 31-72.56h16.45z"/><path d="m449.72 94.55h-69v-92.61h68.83v13.4h-54v26.13h49.9v13.27h-49.9v26.4h54.18z"/><path d="m524 94.55-33-36.91h-13.43v36.91h-14.79v-92.61h43.54q14.23 0 23 7.67t8.78 20.25q0 11.88-8 19.42t-21.1 8.22l33.4 37.05zm-17.68-50.32q7.6 0 12.3-3.94a12.9 12.9 0 0 0 4.7-10.43 13.13 13.13 0 0 0 -4.7-10.51q-4.7-4-12.3-4h-28.75v28.88z"/><path d="m69.6 14.86q-13.89-12.93-37.25-12.92h-32.35v13.41l17 32.9-17 32.89v13.41h32.35q23.35 0 37.25-12.93t13.89-33.38q0-20.46-13.89-33.38zm-10.85 57.14q-9.82 9.13-26.4 9.13h-17.1l17-32.89-17-32.91h17.1q16.57 0 26.4 9.13t9.81 23.77q0 14.67-9.81 23.77z"/></g></svg>